<svg width="2062" height="659" viewBox="0 0 2062 659" fill="none" xmlns="http://www.w3.org/2000/svg">
<g clip-path="url(#clip0_20921_1659)">
<path d="M2062 0H0V659H2062V0Z" fill="#F0F0F4"/>
<g opacity="0.7">
<path d="M151.112 129.268C175.931 116.186 204.305 109.645 236.164 109.645C273.285 109.645 306.851 118.816 336.861 137.089C366.871 155.362 390.694 181.384 408.188 215.086C425.682 248.787 434.429 287.821 434.429 332.258C434.429 376.695 425.682 416.014 408.188 450.213C390.694 484.412 366.871 510.932 336.861 529.773C306.78 548.615 273.214 558 236.164 558C203.736 558 175.433 551.601 151.112 538.803C126.792 526.005 107.306 509.439 92.7282 489.033L92.7282 550.961L-17 550.961L-17 -29L92.7282 -29L92.7282 180.247C106.809 159.343 126.294 142.35 151.112 129.339L151.112 129.268ZM306.353 264.5C295.615 245.445 281.535 230.941 264.041 220.987C246.547 211.033 227.559 206.127 207.221 206.127C186.883 206.127 168.677 211.246 151.184 221.413C133.69 231.581 119.538 246.369 108.871 265.709C98.1329 285.048 92.7993 307.8 92.7993 333.893C92.7993 359.987 98.1329 382.739 108.871 402.078C119.609 421.417 133.69 436.135 151.184 446.373C168.677 456.54 187.38 461.66 207.221 461.66C227.062 461.66 246.547 456.469 264.041 446.018C281.535 435.566 295.686 420.706 306.353 401.367C317.091 382.028 322.425 359.063 322.425 332.4C322.425 305.738 317.091 283.697 306.353 264.642L306.353 264.5Z" fill="#E7E7EC"/>
<path d="M632.409 130.05C655.165 116.968 681.122 110.427 710.421 110.427L710.421 225.608L681.406 225.608C646.916 225.608 620.889 233.714 603.395 249.924C585.901 266.135 577.154 294.362 577.154 334.533L577.154 550.819L467.426 550.819L467.426 116.683L577.154 116.683L577.154 184.086C591.234 161.121 609.653 143.061 632.409 129.979L632.409 130.05Z" fill="#E7E7EC"/>
<path d="M750.742 215.512C768.236 181.527 791.988 155.433 822.069 137.16C852.079 118.888 885.715 109.716 922.765 109.716C955.193 109.716 983.496 116.257 1007.82 129.339C1032.14 142.422 1051.55 158.846 1066.2 178.683L1066.2 116.755L1176.71 116.755L1176.71 550.89L1066.2 550.89L1066.2 487.398C1052.12 507.803 1032.64 524.654 1007.82 537.95C982.998 551.245 954.411 557.929 921.983 557.929C885.431 557.929 852.079 548.544 822.069 529.702C791.988 510.861 768.236 484.412 750.742 450.142C733.248 415.943 724.501 376.624 724.501 332.187C724.501 287.75 733.248 249.356 750.742 215.441L750.742 215.512ZM1050.56 265.282C1040.1 246.227 1026.02 231.581 1008.24 221.414C990.465 211.246 971.407 206.127 950.997 206.127C930.588 206.127 911.814 211.104 894.533 220.987C877.324 230.941 863.315 245.445 852.576 264.5C841.838 283.555 836.505 306.164 836.505 332.258C836.505 358.352 841.838 381.246 852.576 400.798C863.315 420.422 877.395 435.424 894.889 445.876C912.383 456.327 931.086 461.517 950.926 461.517C970.767 461.517 990.394 456.398 1008.17 446.231C1025.95 436.064 1040.03 421.417 1050.49 402.362C1060.94 383.308 1066.13 360.414 1066.13 333.822C1066.13 307.231 1060.87 284.337 1050.49 265.282L1050.56 265.282Z" fill="#E7E7EC"/>
<path d="M1433.86 449.857L1543.59 116.755L1660.35 116.755L1499.64 550.89L1366.37 550.89L1206.44 116.755L1323.99 116.755L1433.72 449.857L1433.86 449.857Z" fill="#E7E7EC"/>
<path d="M2075.87 366.741L1758.42 366.741C1761.05 398.096 1772 422.626 1791.35 440.401C1810.69 458.176 1834.44 467.063 1862.67 467.063C1903.42 467.063 1932.44 449.573 1949.72 414.521L2068.05 414.521C2055.53 456.327 2031.5 490.668 1995.94 517.544C1960.38 544.491 1916.79 557.929 1865.02 557.929C1823.2 557.929 1785.73 548.686 1752.52 530.129C1719.31 511.572 1693.49 485.336 1674.93 451.35C1656.37 417.365 1647.13 378.189 1647.13 333.822C1647.13 289.456 1656.23 249.427 1674.58 215.512C1692.85 181.527 1718.45 155.433 1751.38 137.16C1784.31 118.888 1822.21 109.716 1865.02 109.716C1907.83 109.716 1943.24 118.603 1975.96 136.378C2008.6 154.153 2033.99 179.394 2051.98 212.028C2069.97 244.663 2079 282.204 2079 324.508C2079 340.15 2077.93 354.299 2075.87 366.813L2075.87 366.741ZM1965.36 293.082C1964.86 264.856 1954.62 242.246 1934.78 225.324C1914.94 208.331 1890.62 199.87 1861.89 199.87C1834.73 199.87 1811.83 208.118 1793.34 224.542C1774.78 240.966 1763.4 263.86 1759.27 293.082L1965.43 293.082L1965.36 293.082Z" fill="#E7E7EC"/>
</g>
<path fill-rule="evenodd" clip-rule="evenodd" d="M831.271 263.285L837.272 248.578C837.272 248.578 829.634 240.408 820.36 231.149C811.085 221.889 791.445 227.336 791.445 227.336L769.077 202H729.797H690.517L668.149 227.336C668.149 227.336 648.508 221.889 639.234 231.149C629.959 240.408 622.322 248.578 622.322 248.578L628.323 263.285L620.685 285.072C620.685 285.072 643.148 370.018 645.781 380.391C650.964 400.817 654.51 408.715 669.24 419.063C683.97 429.412 710.702 447.387 715.067 450.11C719.431 452.834 724.887 457.473 729.797 457.473C734.707 457.473 740.163 452.834 744.527 450.11C748.891 447.387 775.624 429.412 790.354 419.063C805.084 408.715 808.63 400.817 813.813 380.391C816.445 370.018 838.909 285.072 838.909 285.072L831.271 263.285Z" fill="url(#paint0_linear_20921_1659)"/>
<path d="M757.62 248.034C760.894 248.034 785.171 243.404 785.171 243.404C785.171 243.404 813.942 278.127 813.942 285.549C813.942 291.684 811.468 294.086 808.554 296.915C807.944 297.507 807.314 298.118 806.684 298.786L785.111 321.657C784.897 321.884 784.659 322.123 784.407 322.376C782.254 324.537 779.083 327.72 781.321 333.007C781.47 333.36 781.624 333.719 781.78 334.084C784.233 339.811 787.261 346.881 783.407 354.047C779.306 361.668 772.282 366.754 767.782 365.913C763.281 365.072 752.71 359.557 748.823 357.038C744.936 354.519 732.616 344.375 732.616 340.493C732.616 337.256 741.476 331.871 745.781 329.254C746.638 328.734 747.314 328.323 747.704 328.06C748.148 327.761 748.891 327.3 749.806 326.733C753.735 324.296 760.83 319.895 761.008 317.944C761.228 315.538 761.144 314.833 757.977 308.889C757.304 307.625 756.516 306.272 755.701 304.873C752.686 299.692 749.309 293.891 750.056 289.736C750.9 285.045 758.262 282.356 764.497 280.078C765.277 279.793 766.039 279.515 766.768 279.24C768.588 278.554 770.875 277.699 773.263 276.805C779.489 274.477 786.406 271.89 787.547 271.365C789.127 270.638 788.718 269.946 783.936 269.493C783.303 269.433 782.516 269.35 781.613 269.254C775.692 268.626 764.773 267.467 759.464 268.945C758.42 269.235 757.249 269.552 756.022 269.883C750.057 271.496 742.748 273.472 742.046 274.611C741.923 274.811 741.802 274.982 741.688 275.144C741.016 276.097 740.578 276.719 741.322 280.77C741.543 281.976 741.998 284.349 742.561 287.283C744.208 295.874 746.778 309.275 747.102 312.286C747.147 312.707 747.197 313.114 747.245 313.505C747.658 316.864 747.932 319.099 744.025 319.99C743.7 320.065 743.358 320.143 743.003 320.224C738.595 321.234 732.132 322.715 729.797 322.715C727.461 322.715 720.993 321.233 716.585 320.223C716.232 320.142 715.892 320.064 715.569 319.99C711.662 319.099 711.936 316.864 712.348 313.505C712.396 313.114 712.446 312.707 712.491 312.286C712.816 309.271 715.392 295.837 717.04 287.248C717.599 284.33 718.051 281.972 718.272 280.77C719.015 276.719 718.577 276.097 717.906 275.144C717.792 274.982 717.671 274.811 717.548 274.611C716.846 273.472 709.537 271.496 703.573 269.884C702.345 269.552 701.174 269.235 700.129 268.945C694.821 267.467 683.902 268.626 677.981 269.254C677.078 269.35 676.291 269.433 675.658 269.493C670.875 269.946 670.467 270.638 672.046 271.365C673.187 271.89 680.101 274.476 686.326 276.804C688.716 277.697 691.005 278.553 692.826 279.24C693.556 279.515 694.318 279.794 695.097 280.078C701.333 282.356 708.694 285.046 709.538 289.736C710.285 293.891 706.909 299.69 703.894 304.87C703.079 306.27 702.29 307.625 701.617 308.889C698.45 314.833 698.366 315.538 698.585 317.944C698.763 319.895 705.855 324.294 709.785 326.732C710.701 327.3 711.445 327.761 711.889 328.06C712.28 328.323 712.955 328.733 713.81 329.253C718.115 331.869 726.977 337.256 726.977 340.493C726.977 344.375 714.658 354.519 710.771 357.038C706.883 359.557 696.313 365.072 691.812 365.913C687.311 366.754 680.287 361.668 676.187 354.047C672.333 346.882 675.36 339.812 677.813 334.085C677.969 333.72 678.123 333.36 678.273 333.007C680.51 327.72 677.339 324.537 675.185 322.375C674.934 322.122 674.696 321.884 674.482 321.657L652.91 298.786C652.279 298.118 651.65 297.507 651.04 296.915C648.126 294.086 645.652 291.685 645.652 285.549C645.652 278.127 674.423 243.404 674.423 243.404C674.423 243.404 698.7 248.034 701.973 248.034C704.585 248.034 709.629 246.3 714.887 244.492C716.218 244.034 717.563 243.572 718.886 243.132C725.432 240.953 729.797 240.937 729.797 240.937C729.797 240.937 734.161 240.953 740.708 243.132C742.031 243.572 743.376 244.034 744.707 244.492C749.965 246.3 755.008 248.034 757.62 248.034Z" fill="white"/>
<path d="M753.453 370.854C758.585 373.494 762.226 375.368 763.603 376.228C765.384 377.341 764.297 379.44 762.676 380.585C761.053 381.73 739.252 398.584 737.136 400.447C736.865 400.685 736.578 400.944 736.279 401.213C734.241 403.047 731.64 405.387 729.797 405.387C727.953 405.387 725.35 403.045 723.312 401.211C723.013 400.942 722.727 400.685 722.457 400.447C720.341 398.584 698.541 381.73 696.918 380.585C695.296 379.44 694.21 377.341 695.991 376.228C697.368 375.367 701.013 373.492 706.15 370.849C707.656 370.075 709.29 369.234 711.032 368.334C718.72 364.362 728.301 360.985 729.797 360.985C731.292 360.985 740.873 364.362 748.562 368.334C750.308 369.236 751.945 370.078 753.453 370.854Z" fill="white"/>
<path d="M937.336 293.597C943.832 290.172 951.259 288.459 959.598 288.459C969.314 288.459 978.1 290.861 985.955 295.644C993.81 300.428 1000.05 307.241 1004.62 316.064C1009.2 324.886 1011.49 335.105 1011.49 346.739C1011.49 358.372 1009.2 368.666 1004.62 377.619C1000.05 386.572 993.81 393.515 985.955 398.448C978.081 403.38 969.296 405.837 959.598 405.837C951.11 405.837 943.702 404.162 937.336 400.812C930.97 397.461 925.87 393.124 922.054 387.782V403.994H893.333V252.163H922.054V306.943C925.74 301.47 930.84 297.022 937.336 293.615V293.597ZM977.97 329C975.159 324.012 971.474 320.214 966.895 317.608C962.316 315.003 957.346 313.718 952.022 313.718C946.699 313.718 941.934 315.058 937.355 317.72C932.776 320.382 929.072 324.254 926.28 329.316C923.469 334.379 922.073 340.336 922.073 347.167C922.073 353.998 923.469 359.955 926.28 365.017C929.09 370.08 932.776 373.933 937.355 376.614C941.934 379.276 946.829 380.616 952.022 380.616C957.215 380.616 962.316 379.257 966.895 376.521C971.474 373.785 975.178 369.894 977.97 364.831C980.78 359.768 982.176 353.756 982.176 346.776C982.176 339.796 980.78 334.026 977.97 329.037V329Z" fill="#1B1B1F"/>
<path d="M1063.31 293.802C1069.27 290.377 1076.06 288.664 1083.73 288.664V318.818H1076.14C1067.11 318.818 1060.3 320.94 1055.72 325.184C1051.14 329.428 1048.85 336.818 1048.85 347.335V403.957H1020.13V290.302H1048.85V307.948C1052.54 301.936 1057.36 297.208 1063.31 293.783V293.802Z" fill="#1B1B1F"/>
<path d="M1094.29 316.175C1098.87 307.278 1105.08 300.447 1112.96 295.663C1120.81 290.879 1129.62 288.478 1139.31 288.478C1147.8 288.478 1155.21 290.19 1161.57 293.615C1167.94 297.04 1173.02 301.34 1176.86 306.533V290.321H1205.78V403.976H1176.86V387.354C1173.17 392.696 1168.07 397.107 1161.57 400.588C1155.08 404.069 1147.6 405.819 1139.11 405.819C1129.54 405.819 1120.81 403.362 1112.96 398.429C1105.08 393.496 1098.87 386.572 1094.29 377.6C1089.71 368.647 1087.42 358.354 1087.42 346.72C1087.42 335.087 1089.71 325.035 1094.29 316.157V316.175ZM1172.76 329.205C1170.03 324.216 1166.34 320.382 1161.69 317.72C1157.03 315.058 1152.04 313.718 1146.7 313.718C1141.36 313.718 1136.45 315.021 1131.92 317.608C1127.42 320.214 1123.75 324.012 1120.94 329C1118.13 333.988 1116.73 339.908 1116.73 346.739C1116.73 353.57 1118.13 359.564 1120.94 364.682C1123.75 369.82 1127.44 373.747 1132.02 376.483C1136.6 379.22 1141.49 380.578 1146.68 380.578C1151.88 380.578 1157.01 379.238 1161.67 376.576C1166.32 373.915 1170.01 370.08 1172.74 365.092C1175.48 360.103 1176.84 354.11 1176.84 347.148C1176.84 340.187 1175.46 334.193 1172.74 329.205H1172.76Z" fill="#1B1B1F"/>
<path d="M1273.09 377.526L1301.81 290.321H1332.37L1290.31 403.976H1255.42L1213.56 290.321H1244.33L1273.05 377.526H1273.09Z" fill="#1B1B1F"/>
<path d="M1441.13 355.766H1358.04C1358.73 363.975 1361.6 370.397 1366.66 375.05C1371.72 379.704 1377.94 382.03 1385.33 382.03C1396 382.03 1403.59 377.451 1408.11 368.275H1439.09C1435.81 379.22 1429.52 388.21 1420.21 395.246C1410.9 402.301 1399.49 405.819 1385.94 405.819C1375 405.819 1365.19 403.399 1356.5 398.541C1347.8 393.682 1341.05 386.814 1336.19 377.917C1331.33 369.019 1328.91 358.763 1328.91 347.148C1328.91 335.533 1331.29 325.054 1336.1 316.175C1340.88 307.278 1347.58 300.447 1356.2 295.663C1364.82 290.879 1374.74 288.478 1385.94 288.478C1397.15 288.478 1406.42 290.805 1414.98 295.458C1423.53 300.112 1430.17 306.719 1434.88 315.263C1439.59 323.807 1441.95 333.635 1441.95 344.71C1441.95 348.805 1441.67 352.509 1441.13 355.785V355.766ZM1412.21 336.483C1412.08 329.093 1409.4 323.174 1404.2 318.744C1399.01 314.295 1392.64 312.08 1385.13 312.08C1378.01 312.08 1372.02 314.239 1367.18 318.539C1362.32 322.839 1359.35 328.832 1358.27 336.483H1412.23H1412.21Z" fill="#1B1B1F"/>
</g>
<defs>
<linearGradient id="paint0_linear_20921_1659" x1="620.685" y1="459.275" x2="838.909" y2="459.275" gradientUnits="userSpaceOnUse">
<stop stop-color="#FF5601"/>
<stop offset="0.5" stop-color="#FF4000"/>
<stop offset="1" stop-color="#FF1F01"/>
</linearGradient>
<clipPath id="clip0_20921_1659">
<rect width="2062" height="659" fill="white"/>
</clipPath>
</defs>
</svg>
