<svg width="2062" height="659" viewBox="0 0 2062 659" fill="none" xmlns="http://www.w3.org/2000/svg">
<rect width="2062" height="659" fill="url(#paint0_linear_1_2)"/>
<g filter="url(#filter0_dd_1_2)">
<path d="M636.42 323.97C640.727 324.65 644.637 326.407 648.15 329.24C651.777 332.073 654.61 335.587 656.65 339.78C658.803 343.973 659.88 348.45 659.88 353.21C659.88 359.217 658.35 364.657 655.29 369.53C652.23 374.29 647.753 378.087 641.86 380.92C636.08 383.64 629.223 385 621.29 385H577.09V266.51H619.59C627.637 266.51 634.493 267.87 640.16 270.59C645.827 273.197 650.077 276.767 652.91 281.3C655.743 285.833 657.16 290.933 657.16 296.6C657.16 303.627 655.233 309.463 651.38 314.11C647.64 318.643 642.653 321.93 636.42 323.97ZM592.56 317.68H618.57C625.823 317.68 631.433 315.98 635.4 312.58C639.367 309.18 641.35 304.477 641.35 298.47C641.35 292.463 639.367 287.76 635.4 284.36C631.433 280.96 625.71 279.26 618.23 279.26H592.56V317.68ZM619.93 372.25C627.637 372.25 633.643 370.437 637.95 366.81C642.257 363.183 644.41 358.14 644.41 351.68C644.41 345.107 642.143 339.95 637.61 336.21C633.077 332.357 627.013 330.43 619.42 330.43H592.56V372.25H619.93ZM696.818 306.97C699.538 301.643 703.391 297.507 708.378 294.56C713.478 291.613 719.654 290.14 726.908 290.14V306.12H722.828C705.488 306.12 696.818 315.527 696.818 334.34V385H681.348V291.84H696.818V306.97ZM738.986 338.08C738.986 328.56 740.912 320.23 744.766 313.09C748.619 305.837 753.889 300.227 760.576 296.26C767.376 292.293 774.912 290.31 783.186 290.31C791.346 290.31 798.429 292.067 804.436 295.58C810.442 299.093 814.919 303.513 817.866 308.84V291.84H833.506V385H817.866V367.66C814.806 373.1 810.216 377.633 804.096 381.26C798.089 384.773 791.062 386.53 783.016 386.53C774.742 386.53 767.262 384.49 760.576 380.41C753.889 376.33 748.619 370.607 744.766 363.24C740.912 355.873 738.986 347.487 738.986 338.08ZM817.866 338.25C817.866 331.223 816.449 325.103 813.616 319.89C810.782 314.677 806.929 310.71 802.056 307.99C797.296 305.157 792.026 303.74 786.246 303.74C780.466 303.74 775.196 305.1 770.436 307.82C765.676 310.54 761.879 314.507 759.046 319.72C756.212 324.933 754.796 331.053 754.796 338.08C754.796 345.22 756.212 351.453 759.046 356.78C761.879 361.993 765.676 366.017 770.436 368.85C775.196 371.57 780.466 372.93 786.246 372.93C792.026 372.93 797.296 371.57 802.056 368.85C806.929 366.017 810.782 361.993 813.616 356.78C816.449 351.453 817.866 345.277 817.866 338.25ZM894.329 370.72L923.229 291.84H939.719L903.169 385H885.149L848.599 291.84H865.259L894.329 370.72ZM1039.94 334.85C1039.94 337.797 1039.77 340.913 1039.43 344.2H964.972C965.538 353.38 968.655 360.577 974.322 365.79C980.102 370.89 987.072 373.44 995.232 373.44C1001.92 373.44 1007.47 371.91 1011.89 368.85C1016.42 365.677 1019.6 361.483 1021.41 356.27H1038.07C1035.58 365.223 1030.59 372.533 1023.11 378.2C1015.63 383.753 1006.34 386.53 995.232 386.53C986.392 386.53 978.458 384.547 971.432 380.58C964.518 376.613 959.078 371.003 955.112 363.75C951.145 356.383 949.162 347.883 949.162 338.25C949.162 328.617 951.088 320.173 954.942 312.92C958.795 305.667 964.178 300.113 971.092 296.26C978.118 292.293 986.165 290.31 995.232 290.31C1004.07 290.31 1011.89 292.237 1018.69 296.09C1025.49 299.943 1030.7 305.27 1034.33 312.07C1038.07 318.757 1039.94 326.35 1039.94 334.85ZM1023.96 331.62C1023.96 325.727 1022.66 320.683 1020.05 316.49C1017.44 312.183 1013.87 308.953 1009.34 306.8C1004.92 304.533 999.992 303.4 994.552 303.4C986.732 303.4 980.045 305.893 974.492 310.88C969.052 315.867 965.935 322.78 965.142 331.62H1023.96ZM1165.01 323.97C1169.32 324.65 1173.23 326.407 1176.74 329.24C1180.37 332.073 1183.2 335.587 1185.24 339.78C1187.4 343.973 1188.47 348.45 1188.47 353.21C1188.47 359.217 1186.94 364.657 1183.88 369.53C1180.82 374.29 1176.35 378.087 1170.45 380.92C1164.67 383.64 1157.82 385 1149.88 385H1105.68V266.51H1148.18C1156.23 266.51 1163.09 267.87 1168.75 270.59C1174.42 273.197 1178.67 276.767 1181.5 281.3C1184.34 285.833 1185.75 290.933 1185.75 296.6C1185.75 303.627 1183.83 309.463 1179.97 314.11C1176.23 318.643 1171.25 321.93 1165.01 323.97ZM1121.15 317.68H1147.16C1154.42 317.68 1160.03 315.98 1163.99 312.58C1167.96 309.18 1169.94 304.477 1169.94 298.47C1169.94 292.463 1167.96 287.76 1163.99 284.36C1160.03 280.96 1154.3 279.26 1146.82 279.26H1121.15V317.68ZM1148.52 372.25C1156.23 372.25 1162.24 370.437 1166.54 366.81C1170.85 363.183 1173 358.14 1173 351.68C1173 345.107 1170.74 339.95 1166.2 336.21C1161.67 332.357 1155.61 330.43 1148.01 330.43H1121.15V372.25H1148.52ZM1225.41 306.97C1228.13 301.643 1231.98 297.507 1236.97 294.56C1242.07 291.613 1248.25 290.14 1255.5 290.14V306.12H1251.42C1234.08 306.12 1225.41 315.527 1225.41 334.34V385H1209.94V291.84H1225.41V306.97ZM1313.99 386.53C1305.26 386.53 1297.33 384.547 1290.19 380.58C1283.16 376.613 1277.61 371.003 1273.53 363.75C1269.56 356.383 1267.58 347.883 1267.58 338.25C1267.58 328.73 1269.62 320.343 1273.7 313.09C1277.89 305.723 1283.56 300.113 1290.7 296.26C1297.84 292.293 1305.83 290.31 1314.67 290.31C1323.51 290.31 1331.5 292.293 1338.64 296.26C1345.78 300.113 1351.39 305.667 1355.47 312.92C1359.66 320.173 1361.76 328.617 1361.76 338.25C1361.76 347.883 1359.61 356.383 1355.3 363.75C1351.11 371.003 1345.38 376.613 1338.13 380.58C1330.88 384.547 1322.83 386.53 1313.99 386.53ZM1313.99 372.93C1319.54 372.93 1324.76 371.627 1329.63 369.02C1334.5 366.413 1338.41 362.503 1341.36 357.29C1344.42 352.077 1345.95 345.73 1345.95 338.25C1345.95 330.77 1344.48 324.423 1341.53 319.21C1338.58 313.997 1334.73 310.143 1329.97 307.65C1325.21 305.043 1320.05 303.74 1314.5 303.74C1308.83 303.74 1303.62 305.043 1298.86 307.65C1294.21 310.143 1290.47 313.997 1287.64 319.21C1284.81 324.423 1283.39 330.77 1283.39 338.25C1283.39 345.843 1284.75 352.247 1287.47 357.46C1290.3 362.673 1294.04 366.583 1298.69 369.19C1303.34 371.683 1308.44 372.93 1313.99 372.93ZM1506.2 291.84L1477.13 385H1461.15L1438.71 311.05L1416.27 385H1400.29L1371.05 291.84H1386.86L1408.28 370.04L1431.4 291.84H1447.21L1469.82 370.21L1490.9 291.84H1506.2ZM1554.53 386.53C1547.39 386.53 1540.99 385.34 1535.32 382.96C1529.66 380.467 1525.18 377.067 1521.89 372.76C1518.61 368.34 1516.79 363.297 1516.45 357.63H1532.43C1532.89 362.277 1535.04 366.073 1538.89 369.02C1542.86 371.967 1548.02 373.44 1554.36 373.44C1560.26 373.44 1564.9 372.137 1568.3 369.53C1571.7 366.923 1573.4 363.637 1573.4 359.67C1573.4 355.59 1571.59 352.587 1567.96 350.66C1564.34 348.62 1558.73 346.637 1551.13 344.71C1544.22 342.897 1538.55 341.083 1534.13 339.27C1529.83 337.343 1526.09 334.567 1522.91 330.94C1519.85 327.2 1518.32 322.327 1518.32 316.32C1518.32 311.56 1519.74 307.197 1522.57 303.23C1525.41 299.263 1529.43 296.147 1534.64 293.88C1539.86 291.5 1545.81 290.31 1552.49 290.31C1562.81 290.31 1571.14 292.917 1577.48 298.13C1583.83 303.343 1587.23 310.483 1587.68 319.55H1572.21C1571.87 314.677 1569.89 310.767 1566.26 307.82C1562.75 304.873 1557.99 303.4 1551.98 303.4C1546.43 303.4 1542.01 304.59 1538.72 306.97C1535.44 309.35 1533.79 312.467 1533.79 316.32C1533.79 319.38 1534.76 321.93 1536.68 323.97C1538.72 325.897 1541.22 327.483 1544.16 328.73C1547.22 329.863 1551.42 331.167 1556.74 332.64C1563.43 334.453 1568.87 336.267 1573.06 338.08C1577.26 339.78 1580.83 342.387 1583.77 345.9C1586.83 349.413 1588.42 354.003 1588.53 359.67C1588.53 364.77 1587.12 369.36 1584.28 373.44C1581.45 377.52 1577.43 380.75 1572.21 383.13C1567.11 385.397 1561.22 386.53 1554.53 386.53ZM1695.37 334.85C1695.37 337.797 1695.2 340.913 1694.86 344.2H1620.4C1620.97 353.38 1624.08 360.577 1629.75 365.79C1635.53 370.89 1642.5 373.44 1650.66 373.44C1657.35 373.44 1662.9 371.91 1667.32 368.85C1671.85 365.677 1675.03 361.483 1676.84 356.27H1693.5C1691.01 365.223 1686.02 372.533 1678.54 378.2C1671.06 383.753 1661.77 386.53 1650.66 386.53C1641.82 386.53 1633.89 384.547 1626.86 380.58C1619.95 376.613 1614.51 371.003 1610.54 363.75C1606.57 356.383 1604.59 347.883 1604.59 338.25C1604.59 328.617 1606.52 320.173 1610.37 312.92C1614.22 305.667 1619.61 300.113 1626.52 296.26C1633.55 292.293 1641.59 290.31 1650.66 290.31C1659.5 290.31 1667.32 292.237 1674.12 296.09C1680.92 299.943 1686.13 305.27 1689.76 312.07C1693.5 318.757 1695.37 326.35 1695.37 334.85ZM1679.39 331.62C1679.39 325.727 1678.09 320.683 1675.48 316.49C1672.87 312.183 1669.3 308.953 1664.77 306.8C1660.35 304.533 1655.42 303.4 1649.98 303.4C1642.16 303.4 1635.47 305.893 1629.92 310.88C1624.48 315.867 1621.36 322.78 1620.57 331.62H1679.39ZM1731.26 306.97C1733.98 301.643 1737.83 297.507 1742.82 294.56C1747.92 291.613 1754.1 290.14 1761.35 290.14V306.12H1757.27C1739.93 306.12 1731.26 315.527 1731.26 334.34V385H1715.79V291.84H1731.26V306.97Z" fill="white"/>
</g>
<g clip-path="url(#clip0_1_2)">
<path fill-rule="evenodd" clip-rule="evenodd" d="M504.098 266.285L510.082 251.578C510.082 251.578 502.466 243.408 493.218 234.149C483.97 224.889 464.386 230.336 464.386 230.336L442.082 205H402.914H363.746L341.442 230.336C341.442 230.336 321.858 224.889 312.61 234.149C303.362 243.408 295.746 251.578 295.746 251.578L301.73 266.285L294.114 288.072C294.114 288.072 316.513 373.018 319.138 383.391C324.306 403.817 327.842 411.715 342.53 422.063C357.218 432.412 383.874 450.387 388.226 453.11C392.578 455.834 398.018 460.473 402.914 460.473C407.81 460.473 413.25 455.834 417.602 453.11C421.954 450.387 448.61 432.412 463.298 422.063C477.986 411.715 481.522 403.817 486.69 383.391C489.315 373.018 511.714 288.072 511.714 288.072L504.098 266.285Z" fill="url(#paint1_linear_1_2)"/>
<path fill-rule="evenodd" clip-rule="evenodd" d="M458.13 246.404C458.13 246.404 486.819 281.127 486.819 288.549C486.819 295.97 483.21 297.929 479.581 301.787C475.953 305.645 460.106 322.494 458.071 324.657C456.035 326.821 451.799 330.102 454.291 336.007C456.783 341.912 460.459 349.426 456.371 357.047C452.282 364.668 445.278 369.755 440.79 368.914C436.302 368.072 425.762 362.557 421.886 360.038C418.01 357.519 405.726 347.375 405.726 343.493C405.726 339.613 418.424 332.644 420.77 331.061C423.117 329.478 433.817 323.349 434.037 320.944C434.255 318.538 434.172 317.833 431.014 311.889C427.856 305.945 422.169 298.014 423.116 292.736C424.062 287.459 433.234 284.715 439.78 282.24C446.324 279.766 458.926 275.092 460.5 274.365C462.074 273.638 461.667 272.946 456.898 272.493C452.13 272.041 438.598 270.242 432.497 271.945C426.396 273.647 415.973 276.238 415.128 277.612C414.284 278.985 413.539 279.031 414.406 283.77C415.273 288.509 419.737 311.247 420.17 315.286C420.604 319.325 421.451 321.995 417.102 322.991C412.752 323.986 405.43 325.715 402.914 325.715C400.398 325.715 393.076 323.986 388.727 322.991C384.377 321.995 385.225 319.325 385.658 315.286C386.092 311.247 390.555 288.509 391.422 283.77C392.289 279.031 391.544 278.985 390.701 277.612C389.856 276.238 379.433 273.647 373.332 271.945C367.231 270.242 353.699 272.041 348.93 272.493C344.161 272.946 343.754 273.638 345.329 274.365C346.903 275.092 359.505 279.766 366.049 282.24C372.594 284.715 381.766 287.459 382.713 292.736C383.66 298.014 377.972 305.945 374.815 311.889C371.657 317.833 371.573 318.538 371.792 320.944C372.011 323.349 382.712 329.478 385.058 331.061C387.404 332.644 400.102 339.613 400.102 343.493C400.102 347.375 387.818 357.519 383.942 360.038C380.066 362.557 369.526 368.072 365.038 368.914C360.55 369.755 353.546 364.668 349.458 357.047C345.37 349.426 349.046 341.912 351.537 336.007C354.029 330.102 349.793 326.821 347.758 324.657C345.723 322.494 329.875 305.645 326.247 301.787C322.618 297.929 319.01 295.97 319.01 288.549C319.01 281.127 347.698 246.404 347.698 246.404C347.698 246.404 371.906 251.034 375.17 251.034C378.434 251.034 385.506 248.31 392.034 246.132C398.562 243.953 402.914 243.937 402.914 243.937C402.914 243.937 407.266 243.953 413.794 246.132C420.322 248.31 427.394 251.034 430.658 251.034C433.922 251.034 458.13 246.404 458.13 246.404ZM436.624 379.228C438.399 380.341 437.316 382.44 435.699 383.585C434.081 384.73 412.342 401.584 410.233 403.447C408.123 405.311 405.022 408.387 402.914 408.387C400.806 408.387 397.705 405.311 395.596 403.447C393.486 401.584 371.747 384.73 370.13 383.585C368.512 382.44 367.429 380.341 369.205 379.228C370.981 378.115 376.537 375.306 384.203 371.334C391.869 367.362 401.423 363.985 402.914 363.985C404.405 363.985 413.959 367.362 421.626 371.334C429.292 375.306 434.848 378.115 436.624 379.228Z" fill="white"/>
<path d="M464.386 230.336L442.082 205H402.914H363.746L341.442 230.336C341.442 230.336 321.858 224.889 312.61 234.149C312.61 234.149 338.722 231.789 347.698 246.404C347.698 246.404 371.906 251.034 375.17 251.034C378.434 251.034 385.506 248.31 392.034 246.132C398.562 243.953 402.914 243.937 402.914 243.937C402.914 243.937 407.266 243.953 413.794 246.132C420.322 248.31 427.394 251.034 430.658 251.034C433.922 251.034 458.13 246.404 458.13 246.404C467.106 231.789 493.218 234.149 493.218 234.149C483.97 224.889 464.386 230.336 464.386 230.336Z" fill="url(#paint2_linear_1_2)"/>
</g>
<defs>
<filter id="filter0_dd_1_2" x="546.09" y="258.51" width="1246.26" height="182.02" filterUnits="userSpaceOnUse" color-interpolation-filters="sRGB">
<feFlood flood-opacity="0" result="BackgroundImageFix"/>
<feColorMatrix in="SourceAlpha" type="matrix" values="0 0 0 0 0 0 0 0 0 0 0 0 0 0 0 0 0 0 127 0" result="hardAlpha"/>
<feOffset dy="23"/>
<feGaussianBlur stdDeviation="15.5"/>
<feComposite in2="hardAlpha" operator="out"/>
<feColorMatrix type="matrix" values="0 0 0 0 0 0 0 0 0 0 0 0 0 0 0 0 0 0 0.58 0"/>
<feBlend mode="normal" in2="BackgroundImageFix" result="effect1_dropShadow_1_2"/>
<feColorMatrix in="SourceAlpha" type="matrix" values="0 0 0 0 0 0 0 0 0 0 0 0 0 0 0 0 0 0 127 0" result="hardAlpha"/>
<feOffset dy="4"/>
<feGaussianBlur stdDeviation="2"/>
<feComposite in2="hardAlpha" operator="out"/>
<feColorMatrix type="matrix" values="0 0 0 0 0 0 0 0 0 0 0 0 0 0 0 0 0 0 0.25 0"/>
<feBlend mode="normal" in2="effect1_dropShadow_1_2" result="effect2_dropShadow_1_2"/>
<feBlend mode="normal" in="SourceGraphic" in2="effect2_dropShadow_1_2" result="shape"/>
</filter>
<linearGradient id="paint0_linear_1_2" x1="0" y1="329.5" x2="2062" y2="329.5" gradientUnits="userSpaceOnUse">
<stop stop-color="#3C0BA9"/>
<stop offset="1" stop-color="#930FA8"/>
</linearGradient>
<linearGradient id="paint1_linear_1_2" x1="294.114" y1="13158.9" x2="22054.1" y2="13158.9" gradientUnits="userSpaceOnUse">
<stop stop-color="#FF5500"/>
<stop offset="0.409877" stop-color="#FF5500"/>
<stop offset="0.581981" stop-color="#FF2000"/>
<stop offset="1" stop-color="#FF2000"/>
</linearGradient>
<linearGradient id="paint2_linear_1_2" x1="700.635" y1="2539.16" x2="18373.4" y2="2539.16" gradientUnits="userSpaceOnUse">
<stop stop-color="#FF452A"/>
<stop offset="1" stop-color="#FF2000"/>
</linearGradient>
<clipPath id="clip0_1_2">
<rect width="218" height="256" fill="white" transform="translate(294 205)"/>
</clipPath>
</defs>
</svg>
