<svg width="225" height="256" viewBox="0 0 225 256" fill="none" xmlns="http://www.w3.org/2000/svg">
<path fill-rule="evenodd" clip-rule="evenodd" d="M214.119 61.2848L220.144 46.5784C220.144 46.5784 212.476 38.4082 203.165 29.1487C193.853 19.8891 174.135 25.3359 174.135 25.3359L151.678 6.10352e-05H112.242H72.8051L50.3482 25.3359C50.3482 25.3359 30.6299 19.8891 21.3185 29.1487C12.0071 38.4082 4.33887 46.5784 4.33887 46.5784L10.3639 61.2848L2.69568 83.0721C2.69568 83.0721 25.2485 168.018 27.8913 178.391C33.0947 198.817 36.6549 206.715 51.4436 217.064C66.2323 227.412 93.0711 245.387 97.4529 248.11C101.835 250.834 107.312 255.473 112.242 255.473C117.171 255.473 122.649 250.834 127.03 248.11C131.412 245.387 158.251 227.412 173.04 217.064C187.828 206.715 191.389 198.817 196.592 178.391C199.234 168.018 221.788 83.0721 221.788 83.0721L214.119 61.2848Z" fill="url(#paint0_linear_20921_1656)"/>
<path d="M140.176 46.0337C143.462 46.0337 167.836 41.4039 167.836 41.4039C167.836 41.4039 196.721 76.1273 196.721 83.5486C196.721 89.6845 194.237 92.0862 191.312 94.9146C190.699 95.5071 190.067 96.1183 189.434 96.7865L167.776 119.657C167.561 119.884 167.322 120.123 167.069 120.376C164.907 122.537 161.724 125.72 163.97 131.007C164.12 131.36 164.275 131.719 164.432 132.084C166.894 137.811 169.935 144.881 166.065 152.047C161.948 159.668 154.896 164.754 150.377 163.913C145.859 163.072 135.246 157.557 131.344 155.038C127.441 152.519 115.072 142.375 115.072 138.493C115.072 135.256 123.968 129.871 128.29 127.254C129.149 126.734 129.828 126.323 130.22 126.06C130.666 125.761 131.412 125.3 132.33 124.733C136.275 122.296 143.398 117.895 143.577 115.944C143.797 113.538 143.714 112.833 140.534 106.889C139.858 105.625 139.067 104.272 138.249 102.873C135.221 97.6921 131.831 91.8913 132.582 87.7361C133.429 83.0454 140.82 80.3561 147.08 78.078C147.863 77.7933 148.627 77.515 149.36 77.2401C151.187 76.5539 153.483 75.6987 155.881 74.8054C162.132 72.4771 169.076 69.8902 170.222 69.3651C171.807 68.6379 171.398 67.9456 166.596 67.493C165.96 67.4331 165.17 67.3496 164.264 67.2538C158.32 66.6257 147.357 65.4671 142.027 66.9445C140.978 67.2351 139.803 67.5515 138.571 67.8834C132.583 69.4959 125.244 71.4721 124.539 72.6114C124.416 72.8107 124.295 72.982 124.18 73.1438C123.506 74.0973 123.066 74.7189 123.812 78.7701C124.035 79.9765 124.491 82.3494 125.056 85.2835C126.71 93.8743 129.291 107.275 129.616 110.286C129.661 110.707 129.711 111.114 129.759 111.505C130.173 114.864 130.449 117.099 126.526 117.99C126.2 118.065 125.857 118.143 125.5 118.224C121.074 119.234 114.586 120.715 112.242 120.715C109.896 120.715 103.403 119.233 98.9772 118.223C98.6227 118.142 98.2815 118.064 97.9568 117.99C94.034 117.099 94.3094 114.864 94.7232 111.505C94.7714 111.114 94.8215 110.707 94.867 110.286C95.1929 107.271 97.7796 93.8372 99.4335 85.2478C99.9953 82.3302 100.449 79.9716 100.671 78.7701C101.417 74.7192 100.977 74.0974 100.303 73.1441C100.188 72.9822 100.067 72.8108 99.944 72.6114C99.239 71.4722 91.9011 69.4962 85.9129 67.8837C84.6802 67.5517 83.5047 67.2352 82.456 66.9445C77.1264 65.4672 66.1643 66.6256 60.2197 67.2537C59.3128 67.3496 58.5226 67.4331 57.8871 67.493C53.0857 67.9456 52.676 68.6379 54.2611 69.3651C55.4064 69.89 62.3479 72.4757 68.5972 74.8035C70.9973 75.6975 73.2952 76.5534 75.1236 77.2401C75.8561 77.5152 76.6212 77.7936 77.404 78.0785C83.664 80.3564 91.0545 83.0457 91.9016 87.7361C92.6519 91.8907 89.2625 97.6903 86.2352 102.87C85.4171 104.27 84.6255 105.625 83.9492 106.889C80.7696 112.833 80.6852 113.538 80.906 115.944C81.0845 117.895 88.2048 122.294 92.15 124.732C93.0694 125.3 93.8164 125.761 94.2629 126.06C94.6545 126.323 95.3326 126.733 96.1914 127.253C100.513 129.869 109.41 135.256 109.41 138.493C109.41 142.375 97.0421 152.519 93.1395 155.038C89.2369 157.557 78.6247 163.072 74.1059 163.913C69.5871 164.754 62.5351 159.668 58.4184 152.047C54.5488 144.882 57.5882 137.812 60.0505 132.085C60.2074 131.72 60.362 131.36 60.5123 131.007C62.7589 125.72 59.5749 122.537 57.4127 120.375C57.16 120.122 56.9212 119.884 56.7067 119.657L35.0484 96.7865C34.4158 96.1184 33.7837 95.5073 33.1711 94.9149C30.2457 92.0864 27.7619 89.6847 27.7619 83.5486C27.7619 76.1273 56.647 41.4039 56.647 41.4039C56.647 41.4039 81.021 46.0337 84.3074 46.0337C86.9298 46.0337 91.9935 44.2996 97.2722 42.4918C98.6087 42.0341 99.959 41.5717 101.287 41.1315C107.86 38.9528 112.242 38.937 112.242 38.937C112.242 38.937 116.623 38.9528 123.196 41.1315C124.524 41.5717 125.874 42.0341 127.211 42.4919C132.49 44.2996 137.553 46.0337 140.176 46.0337Z" fill="white"/>
<path d="M135.992 168.854C141.145 171.494 144.8 173.368 146.182 174.228C147.97 175.341 146.879 177.44 145.251 178.585C143.622 179.73 121.734 196.584 119.61 198.447C119.338 198.685 119.05 198.944 118.75 199.213C116.703 201.047 114.092 203.387 112.241 203.387C110.39 203.387 107.777 201.045 105.731 199.211C105.431 198.942 105.144 198.685 104.873 198.447C102.748 196.584 80.8609 179.73 79.232 178.585C77.6031 177.44 76.5131 175.341 78.3009 174.228C79.6839 173.367 83.3429 171.492 88.5006 168.849C90.0123 168.075 91.6527 167.234 93.4023 166.334C101.12 162.362 110.74 158.985 112.241 158.985C113.743 158.985 123.362 162.362 131.081 166.334C132.834 167.236 134.478 168.078 135.992 168.854Z" fill="white"/>
<defs>
<linearGradient id="paint0_linear_20921_1656" x1="2.69568" y1="257.275" x2="221.788" y2="257.275" gradientUnits="userSpaceOnUse">
<stop stop-color="#FF5601"/>
<stop offset="0.5" stop-color="#FF4000"/>
<stop offset="1" stop-color="#FF1F01"/>
</linearGradient>
</defs>
</svg>
