<svg width="430" height="133" viewBox="0 0 430 133" fill="none" xmlns="http://www.w3.org/2000/svg">
<path fill-rule="evenodd" clip-rule="evenodd" d="M111.025 31.8394L114.149 24.1989C114.149 24.1989 110.173 19.9542 105.345 15.1436C100.517 10.333 90.2922 13.1628 90.2922 13.1628L78.6479 0H58.1993H37.7507L26.1064 13.1628C26.1064 13.1628 15.8821 10.333 11.054 15.1436C6.22584 19.9542 2.24973 24.1989 2.24973 24.1989L5.37382 31.8394L1.39771 43.1585C1.39771 43.1585 13.0917 87.2904 14.4621 92.6798C17.1602 103.291 19.0062 107.395 26.6744 112.771C34.3426 118.148 48.259 127.486 50.5311 128.901C52.8032 130.316 55.6432 132.726 58.1993 132.726C60.7554 132.726 63.5955 130.316 65.8675 128.901C68.1396 127.486 82.056 118.148 89.7242 112.771C97.3924 107.395 99.2385 103.291 101.937 92.6798C103.307 87.2904 115.001 43.1585 115.001 43.1585L111.025 31.8394Z" fill="url(#paint0_linear_20921_1613)"/>
<path d="M72.6837 23.9159C74.3877 23.9159 87.0261 21.5106 87.0261 21.5106C87.0261 21.5106 102.004 39.5505 102.004 43.4061C102.004 46.5939 100.716 47.8417 99.1987 49.3111C98.881 49.6189 98.5532 49.9365 98.2251 50.2836L86.9949 62.1656C86.8835 62.2834 86.7596 62.4075 86.6284 62.5389C85.5075 63.6619 83.8568 65.3156 85.0216 68.062C85.0994 68.2456 85.1795 68.4322 85.2608 68.6216C86.5378 71.5972 88.1142 75.2704 86.1076 78.9929C83.973 82.9524 80.3164 85.5951 77.9733 85.1582C75.6303 84.721 70.1276 81.8558 68.1041 80.547C66.0805 79.2383 59.667 73.9681 59.667 71.9516C59.667 70.2698 64.2794 67.472 66.5204 66.1126C66.9662 65.8422 67.3181 65.6288 67.5213 65.4923C67.7526 65.337 68.1395 65.0975 68.6157 64.8027C70.6612 63.5365 74.3545 61.2502 74.4474 60.2365C74.5616 58.9866 74.5181 58.6202 72.8694 55.5323C72.5189 54.8757 72.1086 54.1723 71.6847 53.4455C70.1147 50.7541 68.3568 47.7404 68.7459 45.5816C69.1852 43.1447 73.0175 41.7475 76.2638 40.564C76.6695 40.4161 77.066 40.2715 77.4457 40.1286C78.393 39.7722 79.5836 39.3278 80.8271 38.8637C84.0681 37.6541 87.6692 36.3101 88.263 36.0373C89.0852 35.6596 88.8727 35.2999 86.3828 35.0647C86.0534 35.0336 85.6439 34.9902 85.1738 34.9405C82.0916 34.6141 76.407 34.0122 73.6434 34.7798C73.0998 34.9307 72.4905 35.0951 71.8515 35.2675C68.7465 36.1053 64.9414 37.132 64.5758 37.7239C64.5119 37.8274 64.449 37.9165 64.3897 38.0005C64.0399 38.4959 63.8119 38.8188 64.199 40.9235C64.3141 41.5503 64.551 42.7831 64.844 44.3074C65.7016 48.7707 67.0395 55.7329 67.208 57.297C67.2316 57.5159 67.2576 57.727 67.2826 57.9303C67.4972 59.6752 67.64 60.8364 65.6062 61.2997C65.4369 61.3383 65.259 61.3789 65.0741 61.4212C62.7793 61.9459 59.4149 62.7151 58.1993 62.7151C56.9832 62.7151 53.6162 61.9452 51.3215 61.4205C51.1377 61.3785 50.9607 61.338 50.7924 61.2997C48.7583 60.8364 48.9011 59.6752 49.1157 57.9302C49.1407 57.727 49.1667 57.5158 49.1903 57.297C49.3592 55.7307 50.7005 48.7514 51.558 44.2889C51.8493 42.7731 52.0848 41.5477 52.1996 40.9235C52.5864 38.819 52.3584 38.4959 52.0089 38.0006C51.9495 37.9165 51.8867 37.8275 51.8227 37.7239C51.4572 37.132 47.6523 36.1055 44.5474 35.2677C43.9082 35.0952 43.2987 34.9308 42.7549 34.7798C39.9914 34.0123 34.3074 34.6141 31.225 34.9404C30.7547 34.9902 30.345 35.0336 30.0155 35.0647C27.5258 35.2999 27.3134 35.6596 28.1353 36.0373C28.7292 36.3101 32.3285 37.6534 35.5689 38.8628C36.8133 39.3272 38.0049 39.7719 38.9529 40.1286C39.3327 40.2716 39.7295 40.4162 40.1354 40.5642C43.3813 41.7477 47.2134 43.1449 47.6526 45.5816C48.0417 47.7401 46.2842 50.7532 44.7145 53.4443C44.2903 54.1715 43.8798 54.8753 43.5291 55.5323C41.8805 58.6202 41.8367 58.9866 41.9512 60.2365C42.0438 61.25 45.7358 63.5356 47.7814 64.802C48.2582 65.0971 48.6455 65.3369 48.877 65.4923C49.0801 65.6287 49.4317 65.8419 49.8769 66.112C52.1177 67.4712 56.7312 70.2696 56.7312 71.9516C56.7312 73.9681 50.3181 79.2383 48.2945 80.547C46.2709 81.8558 40.7683 84.721 38.4252 85.1582C36.0822 85.5951 32.4256 82.9524 30.2909 78.9929C28.2845 75.2707 29.8605 71.5978 31.1372 68.6223C31.2186 68.4327 31.2988 68.2458 31.3767 68.062C32.5416 65.3153 30.8906 63.6616 29.7695 62.5386C29.6385 62.4073 29.5146 62.2833 29.4034 62.1656L18.1732 50.2836C17.8452 49.9365 17.5174 49.619 17.1998 49.3113C15.6829 47.8418 14.395 46.594 14.395 43.4061C14.395 39.5505 29.3725 21.5106 29.3725 21.5106C29.3725 21.5106 42.0108 23.9159 43.7149 23.9159C45.0746 23.9159 47.7003 23.015 50.4374 22.0759C51.1304 21.8381 51.8305 21.5978 52.5191 21.3691C55.9272 20.2372 58.1993 20.229 58.1993 20.229C58.1993 20.229 60.4713 20.2372 63.8794 21.3691C64.568 21.5978 65.2682 21.8381 65.9612 22.0759C68.6983 23.015 71.3239 23.9159 72.6837 23.9159Z" fill="white"/>
<path d="M70.5143 87.7249C73.186 89.0967 75.0814 90.0699 75.7981 90.5168C76.7251 91.0952 76.1596 92.1855 75.3153 92.7803C74.4706 93.3751 63.1214 102.132 62.02 103.099C61.879 103.223 61.7296 103.357 61.5739 103.497C60.5126 104.45 59.159 105.666 58.1992 105.666C57.2391 105.666 55.8845 104.449 54.8232 103.496C54.668 103.357 54.519 103.223 54.3785 103.099C53.2768 102.132 41.9278 93.3751 41.0832 92.7803C40.2386 92.1855 39.6734 91.0952 40.6004 90.5168C41.3175 90.0697 43.2148 89.0956 45.8892 87.7225C46.673 87.32 47.5236 86.8833 48.4308 86.4155C52.4327 84.3521 57.4208 82.5976 58.1992 82.5976C58.9777 82.5976 63.9654 84.3521 67.968 86.4155C68.877 86.8843 69.7291 87.3218 70.5143 87.7249Z" fill="white"/>
<path d="M166.24 47.5698C169.622 45.7868 173.488 44.8953 177.83 44.8953C182.888 44.8953 187.461 46.1453 191.55 48.6357C195.64 51.126 198.886 54.6725 201.269 59.2655C203.653 63.8585 204.845 69.1783 204.845 75.2345C204.845 81.2907 203.653 86.6492 201.269 91.3101C198.886 95.9709 195.64 99.5853 191.55 102.153C187.452 104.721 182.878 106 177.83 106C173.411 106 169.554 105.128 166.24 103.384C162.926 101.64 160.271 99.3818 158.285 96.6008V105.041H143.333V26H158.285V54.5174C160.204 51.6686 162.859 49.3527 166.24 47.5795V47.5698ZM187.393 66C185.93 63.4031 184.012 61.4264 181.628 60.0698C179.244 58.7132 176.657 58.0446 173.886 58.0446C171.114 58.0446 168.634 58.7422 166.25 60.1279C163.866 61.5136 161.938 63.5291 160.485 66.1647C159.021 68.8004 158.295 71.9012 158.295 75.4574C158.295 79.0136 159.021 82.1143 160.485 84.75C161.948 87.3857 163.866 89.3915 166.25 90.7868C168.634 92.1725 171.182 92.8701 173.886 92.8701C176.589 92.8701 179.244 92.1628 181.628 90.7384C184.012 89.3139 185.94 87.2888 187.393 84.6531C188.857 82.0174 189.583 78.8876 189.583 75.2539C189.583 71.6201 188.857 68.6163 187.393 66.0194V66Z" fill="white"/>
<path d="M231.822 47.6764C234.923 45.8934 238.459 45.002 242.452 45.002V60.6996H238.498C233.799 60.6996 230.252 61.8043 227.868 64.0136C225.485 66.2229 224.293 70.0698 224.293 75.5446V105.021H209.341V45.8547H224.293V55.0407C226.211 51.9109 228.721 49.4496 231.822 47.6667V47.6764Z" fill="white"/>
<path d="M247.946 59.3236C250.33 54.6919 253.566 51.1356 257.665 48.6453C261.754 46.155 266.337 44.905 271.386 44.905C275.804 44.905 279.661 45.7965 282.975 47.5794C286.289 49.3624 288.934 51.6008 290.93 54.3043V45.8643H305.988V105.031H290.93V96.3779C289.012 99.1589 286.357 101.455 282.975 103.267C279.593 105.079 275.698 105.99 271.279 105.99C266.299 105.99 261.754 104.711 257.665 102.143C253.566 99.5756 250.33 95.9709 247.946 91.3004C245.562 86.6395 244.37 81.281 244.37 75.2248C244.37 69.1686 245.562 63.936 247.946 59.3139V59.3236ZM288.799 66.1066C287.374 63.5097 285.456 61.5136 283.033 60.1279C280.611 58.7422 278.014 58.0446 275.233 58.0446C272.452 58.0446 269.893 58.7229 267.539 60.0698C265.194 61.4263 263.285 63.4031 261.822 66C260.359 68.5969 259.632 71.6783 259.632 75.2345C259.632 78.7907 260.359 81.9108 261.822 84.5756C263.285 87.25 265.204 89.2946 267.587 90.719C269.971 92.1434 272.519 92.8508 275.223 92.8508C277.926 92.8508 280.601 92.1531 283.023 90.7674C285.446 89.3818 287.364 87.3856 288.789 84.7887C290.213 82.1919 290.921 79.0717 290.921 75.4477C290.921 71.8236 290.204 68.7035 288.789 66.1066H288.799Z" fill="white"/>
<path d="M341.027 91.2617L355.979 45.8644H371.89L349.99 105.031H331.831L310.039 45.8644H326.056L341.008 91.2617H341.027Z" fill="white"/>
<path d="M428.508 79.9341H385.252C385.611 84.2074 387.103 87.5504 389.738 89.9729C392.374 92.3953 395.611 93.6066 399.457 93.6066C405.01 93.6066 408.963 91.2229 411.318 86.4457H427.442C425.737 92.1434 422.461 96.8236 417.616 100.486C412.771 104.159 406.831 105.99 399.777 105.99C394.08 105.99 388.973 104.731 384.448 102.202C379.923 99.6725 376.405 96.0969 373.876 91.4651C371.347 86.8333 370.087 81.4942 370.087 75.4477C370.087 69.4012 371.328 63.9457 373.828 59.3236C376.318 54.6919 379.806 51.1356 384.293 48.6453C388.779 46.155 393.944 44.905 399.777 44.905C405.611 44.905 410.436 46.1163 414.894 48.5388C419.341 50.9612 422.8 54.4012 425.252 58.8488C427.704 63.2965 428.934 68.4128 428.934 74.1783C428.934 76.3101 428.789 78.2384 428.508 79.9438V79.9341ZM413.45 69.8953C413.382 66.0484 411.987 62.967 409.283 60.6608C406.58 58.3449 403.266 57.1919 399.351 57.1919C395.649 57.1919 392.529 58.3159 390.01 60.5543C387.481 62.7926 385.93 65.9128 385.368 69.8953H413.459H413.45Z" fill="white"/>
<defs>
<linearGradient id="paint0_linear_20921_1613" x1="1.39771" y1="133.662" x2="115.001" y2="133.662" gradientUnits="userSpaceOnUse">
<stop stop-color="#FF5601"/>
<stop offset="0.5" stop-color="#FF4000"/>
<stop offset="1" stop-color="#FF1F01"/>
</linearGradient>
</defs>
</svg>
